<svg version="1.1" id="Layer_1" xmlns="http://www.w3.org/2000/svg" xmlns:xlink="http://www.w3.org/1999/xlink" x="0px" y="0px"
	 width="100%" viewBox="0 0 1024 1024" enable-background="new 0 0 1024 1024" xml:space="preserve">
<path fill="#043C7E" opacity="1.000000" stroke="none" 
	d="
M945.000000,1025.000000 
	C630.365356,1025.000000 315.730743,1025.000000 1.048052,1025.000000 
	C1.048052,683.733459 1.048052,342.466919 1.048052,1.100176 
	C342.231781,1.100176 683.463623,1.100176 1025.000000,1.100176 
	C1025.000000,336.697540 1025.000000,672.395142 1024.532959,1008.545654 
	C1019.041626,1009.038147 1014.017273,1009.077698 1008.528931,1009.068176 
	C1003.044312,1009.067505 998.023804,1009.115967 992.539673,1009.102783 
	C987.049744,1009.082520 982.023376,1009.123901 976.534668,1009.097412 
	C971.089050,1009.105347 966.105713,1009.181091 960.653564,1009.175476 
	C955.249939,1009.094055 950.315186,1009.094055 945.000000,1009.094055 
	C945.000000,1014.745789 945.000000,1019.872864 945.000000,1025.000000 
M821.769470,556.742249 
	C822.854126,556.669067 823.938782,556.595825 825.937927,556.721130 
	C839.283936,556.647217 852.629944,556.573364 866.892456,556.722961 
	C875.170044,556.722961 883.447632,556.722961 892.020020,556.722961 
	C892.020020,550.252319 892.020020,544.192139 892.020020,538.022461 
	C880.199036,538.022461 868.603516,538.022461 856.087219,537.827942 
	C831.810364,537.827942 807.533508,537.827942 782.781311,537.827942 
	C782.781311,529.814819 783.330322,522.307556 782.637024,514.916870 
	C781.839294,506.412384 786.109436,501.127075 792.664124,497.607056 
	C796.270325,495.670410 800.902100,494.926636 805.081970,494.891541 
	C832.234741,494.663422 859.390381,494.777710 886.545044,494.779877 
	C888.312622,494.780029 890.080261,494.779907 891.905518,494.779907 
	C891.905518,488.112518 891.905518,482.023163 891.905518,475.692657 
	C878.928345,475.692657 866.279724,475.701660 853.631104,475.690582 
	C833.640198,475.673096 813.647766,475.481598 793.658875,475.670166 
	C778.913940,475.809235 762.458252,486.294464 762.282837,503.518005 
	C762.142090,517.335815 762.377930,531.157471 762.231018,545.895508 
	C762.214600,560.391052 762.862122,574.925903 762.006409,589.371765 
	C761.031921,605.822510 776.757202,622.093811 792.954163,622.424683 
	C823.762756,623.054016 854.591492,622.740601 885.411682,622.713684 
	C889.334961,622.710266 892.211304,620.452820 892.630188,616.507935 
	C893.079285,612.278442 892.731506,607.964355 892.731506,603.209045 
	C890.345398,603.209045 888.553528,603.208984 886.761658,603.209045 
	C859.103210,603.209656 831.444763,603.240417 803.786377,603.198425 
	C789.964783,603.177429 782.776672,595.962097 782.792969,582.319763 
	C782.801086,575.488464 782.730164,568.655884 782.853699,561.826782 
	C782.885071,560.093811 783.523376,558.371887 784.827698,556.765320 
	C796.877563,556.685425 808.927490,556.605530 821.769470,556.742249 
M247.203491,658.477722 
	C248.039886,659.265198 248.750900,660.294006 249.731659,660.803711 
	C262.890869,667.642517 275.949249,674.701660 289.349365,681.036194 
	C294.114380,683.288757 299.732117,683.737488 305.560608,685.509705 
	C312.141296,686.306519 318.716827,687.148743 325.303589,687.891724 
	C346.463257,690.278381 367.094177,687.255005 387.109650,680.645874 
	C396.654877,677.493958 405.691895,672.731323 414.821045,668.406860 
	C430.730652,660.870483 444.800476,650.542908 456.973175,637.965637 
	C471.285217,623.177856 484.127380,607.265198 492.874878,588.248779 
	C500.900177,570.802368 507.703613,553.024048 510.187134,533.968506 
	C514.361694,501.938354 512.280151,470.543243 500.509430,439.954224 
	C492.753876,419.799591 483.195953,401.124481 469.188995,384.394470 
	C456.344513,369.053040 441.832916,355.974152 425.394775,344.876617 
	C421.656433,342.352814 417.203857,340.886841 412.899231,338.259460 
	C411.589020,337.125214 410.453186,335.591461 408.936798,334.929596 
	C403.819244,332.695831 398.671783,330.427948 393.344879,328.796417 
	C379.802063,324.648315 366.321167,320.049866 351.108063,319.829041 
	C337.059418,318.314575 323.215790,320.077911 309.442596,322.580566 
	C291.609589,325.820923 275.030762,332.576324 259.340027,341.440369 
	C246.153580,348.889618 233.653427,357.400177 223.380798,368.721649 
	C218.046478,374.600586 212.846619,380.613922 207.832901,386.767731 
	C203.031113,392.661438 197.871933,398.417938 194.049545,404.927490 
	C181.164398,426.870972 172.130676,450.359253 168.533737,475.662292 
	C164.389038,504.818634 165.486664,533.717346 174.935577,561.847412 
	C181.782089,582.230042 190.207947,601.756714 204.278610,618.613220 
	C214.873901,631.306213 225.958557,643.337769 238.945557,653.546692 
	C241.274353,655.377380 244.193878,656.456604 247.203491,658.477722 
M694.739502,556.770691 
	C690.907776,552.860229 687.041443,548.982971 683.250000,545.033813 
	C661.636658,522.521606 640.046204,499.987366 618.419312,477.488220 
	C617.656860,476.695068 616.603394,475.656891 615.667480,475.638245 
	C608.106750,475.487427 600.541626,475.553680 593.225952,475.553680 
	C593.225952,524.825134 593.225952,573.273438 593.225952,621.987488 
	C599.851257,621.987488 606.111816,621.987488 613.053833,621.987488 
	C613.053833,582.286072 613.053833,542.825073 613.053833,503.364105 
	C613.521851,503.133087 613.989807,502.902039 614.457825,502.671021 
	C622.092468,510.686157 629.769226,518.661743 637.354248,526.723633 
	C663.422974,554.431152 689.647278,581.996338 715.392883,610.001343 
	C723.003723,618.280090 732.167114,620.504395 742.908203,621.053528 
	C742.908203,572.565369 742.908203,524.402649 742.908203,476.344574 
	C736.737793,476.344574 730.942505,476.344574 724.329834,476.344574 
	C724.329834,513.503052 724.329834,550.423218 724.329834,588.460999 
	C714.008301,577.384766 704.632935,567.323853 694.739502,556.770691 
z"/>
<path fill="#F7F6F4" opacity="1.000000" stroke="none" 
	d="
M945.466858,1025.000000 
	C945.000000,1019.872864 945.000000,1014.745789 945.000000,1009.094055 
	C950.315186,1009.094055 955.249939,1009.094055 960.621094,1009.624390 
	C961.038330,1015.103210 961.019165,1020.051575 961.000000,1025.000000 
	C955.977905,1025.000000 950.955811,1025.000000 945.466858,1025.000000 
z"/>
<path fill="#42FFFF" opacity="1.000000" stroke="none" 
	d="
M961.466919,1025.000000 
	C961.019165,1020.051575 961.038330,1015.103210 961.089966,1009.705811 
	C966.105713,1009.181091 971.089050,1009.105347 976.535278,1009.552673 
	C976.998718,1015.050537 976.999390,1020.025269 977.000000,1025.000000 
	C971.977905,1025.000000 966.955811,1025.000000 961.466919,1025.000000 
z"/>
<path fill="#51DA4C" opacity="1.000000" stroke="none" 
	d="
M977.466858,1025.000000 
	C976.999390,1020.025269 976.998718,1015.050537 976.997559,1009.620605 
	C982.023376,1009.123901 987.049744,1009.082520 992.538879,1009.557983 
	C993.001099,1015.049988 993.000549,1020.024963 993.000000,1025.000000 
	C987.977905,1025.000000 982.955811,1025.000000 977.466858,1025.000000 
z"/>
<path fill="#FF6E3C" opacity="1.000000" stroke="none" 
	d="
M993.466858,1025.000000 
	C993.000549,1020.024963 993.001099,1015.049988 993.002441,1009.619690 
	C998.023804,1009.115967 1003.044312,1009.067505 1008.550415,1009.522095 
	C1009.023926,1015.016724 1009.011963,1020.008362 1009.000000,1025.000000 
	C1003.977905,1025.000000 998.955811,1025.000000 993.466858,1025.000000 
z"/>
<path fill="#043D7E" opacity="1.000000" stroke="none" 
	d="
M1009.471191,1025.000000 
	C1009.011963,1020.008362 1009.023926,1015.016724 1009.014404,1009.571167 
	C1014.017273,1009.077698 1019.041626,1009.038147 1024.532959,1008.999268 
	C1025.000000,1014.258423 1025.000000,1019.516846 1025.000000,1025.000000 
	C1019.982300,1025.000000 1014.962341,1025.000000 1009.471191,1025.000000 
z"/>
<path fill="#FDFDFC" opacity="1.000000" stroke="none" 
	d="
M413.080048,338.933990 
	C417.203857,340.886841 421.656433,342.352814 425.394775,344.876617 
	C441.832916,355.974152 456.344513,369.053040 469.188995,384.394470 
	C483.195953,401.124481 492.753876,419.799591 500.509430,439.954224 
	C512.280151,470.543243 514.361694,501.938354 510.187134,533.968506 
	C507.703613,553.024048 500.900177,570.802368 492.874878,588.248779 
	C484.127380,607.265198 471.285217,623.177856 456.973175,637.965637 
	C444.800476,650.542908 430.730652,660.870483 414.821045,668.406860 
	C405.691895,672.731323 396.654877,677.493958 387.109650,680.645874 
	C367.094177,687.255005 346.463257,690.278381 325.303589,687.891724 
	C318.716827,687.148743 312.141296,686.306519 305.380554,684.917969 
	C311.508026,671.210205 317.876984,658.123230 324.101166,644.967834 
	C328.127380,636.458008 331.941803,627.848022 336.210999,619.125488 
	C367.639648,618.258179 394.351166,606.798401 415.555664,584.375061 
	C432.839020,566.098267 442.429993,543.539490 446.249054,518.621155 
	C448.763245,502.216370 446.757080,486.231201 442.262390,470.374573 
	C438.334412,456.517303 432.026703,443.866394 423.831360,432.124939 
	C421.475311,428.749512 418.962952,425.276154 415.827209,422.690735 
	C406.403717,414.921112 396.637299,407.567413 387.130554,399.714813 
	C395.864319,379.230133 404.472198,359.082062 413.080048,338.933990 
z"/>
<path fill="#FDFDFC" opacity="1.000000" stroke="none" 
	d="
M246.840668,657.882812 
	C244.193878,656.456604 241.274353,655.377380 238.945557,653.546692 
	C225.958557,643.337769 214.873901,631.306213 204.278610,618.613220 
	C190.207947,601.756714 181.782089,582.230042 174.935577,561.847412 
	C165.486664,533.717346 164.389038,504.818634 168.533737,475.662292 
	C172.130676,450.359253 181.164398,426.870972 194.049545,404.927490 
	C197.871933,398.417938 203.031113,392.661438 207.832901,386.767731 
	C212.846619,380.613922 218.046478,374.600586 223.380798,368.721649 
	C233.653427,357.400177 246.153580,348.889618 259.340027,341.440369 
	C275.030762,332.576324 291.609589,325.820923 309.442596,322.580566 
	C323.215790,320.077911 337.059418,318.314575 351.436279,320.280426 
	C346.675995,332.614441 341.675873,344.535919 336.473206,356.368347 
	C331.675201,367.280457 326.659668,378.096863 321.407623,389.129517 
	C316.120544,390.449951 310.827332,390.847900 306.283539,392.902893 
	C297.588379,396.835449 288.931610,401.117371 280.962463,406.329926 
	C268.270813,414.631561 257.749756,425.124603 249.827515,438.439972 
	C237.627945,458.944397 230.762619,480.782379 231.296112,504.609924 
	C232.168427,543.570007 247.019272,575.667297 279.053223,598.985046 
	C279.896942,599.599182 280.243286,600.896606 280.462463,601.945557 
	C278.869049,602.918274 277.156433,603.551208 276.472504,604.764160 
	C266.514435,622.424866 256.693970,640.163086 246.840668,657.882812 
z"/>
<path fill="#FAF9F5" opacity="1.000000" stroke="none" 
	d="
M694.998535,557.016846 
	C704.632935,567.323853 714.008301,577.384766 724.329834,588.460999 
	C724.329834,550.423218 724.329834,513.503052 724.329834,476.344574 
	C730.942505,476.344574 736.737793,476.344574 742.908203,476.344574 
	C742.908203,524.402649 742.908203,572.565369 742.908203,621.053528 
	C732.167114,620.504395 723.003723,618.280090 715.392883,610.001343 
	C689.647278,581.996338 663.422974,554.431152 637.354248,526.723633 
	C629.769226,518.661743 622.092468,510.686157 614.457825,502.671021 
	C613.989807,502.902039 613.521851,503.133087 613.053833,503.364105 
	C613.053833,542.825073 613.053833,582.286072 613.053833,621.987488 
	C606.111816,621.987488 599.851257,621.987488 593.225952,621.987488 
	C593.225952,573.273438 593.225952,524.825134 593.225952,475.553680 
	C600.541626,475.553680 608.106750,475.487427 615.667480,475.638245 
	C616.603394,475.656891 617.656860,476.695068 618.419312,477.488220 
	C640.046204,499.987366 661.636658,522.521606 683.250000,545.033813 
	C687.041443,548.982971 690.907776,552.860229 694.998535,557.016846 
z"/>
<path fill="#FDFDFC" opacity="1.000000" stroke="none" 
	d="
M865.975952,556.499512 
	C852.629944,556.573364 839.283936,556.647217 825.410217,556.336792 
	C823.148743,553.200378 821.938965,554.017578 820.977356,556.525635 
	C808.927490,556.605530 796.877563,556.685425 784.110474,556.494507 
	C778.188782,554.348877 775.380798,550.805054 775.495483,545.113037 
	C775.514771,544.154541 775.347290,542.915283 774.755615,542.284363 
	C773.794739,541.259888 772.412170,540.630981 771.207581,539.835083 
	C770.633057,541.320618 770.796570,541.762268 770.875122,542.218567 
	C771.137573,543.743286 771.369507,545.273315 771.613159,546.801270 
	C770.086548,546.602112 768.544128,546.482483 767.037842,546.181702 
	C765.489075,545.872375 763.975525,545.386230 762.446594,544.977417 
	C762.377930,531.157471 762.142090,517.335815 762.282837,503.518005 
	C762.458252,486.294464 778.913940,475.809235 793.658875,475.670166 
	C813.647766,475.481598 833.640198,475.673096 853.631104,475.690582 
	C866.279724,475.701660 878.928345,475.692657 891.905518,475.692657 
	C891.905518,482.023163 891.905518,488.112518 891.905518,494.779907 
	C890.080261,494.779907 888.312622,494.780029 886.545044,494.779877 
	C859.390381,494.777710 832.234741,494.663422 805.081970,494.891541 
	C800.902100,494.926636 796.270325,495.670410 792.664124,497.607056 
	C786.109436,501.127075 781.839294,506.412384 782.637024,514.916870 
	C783.330322,522.307556 782.781311,529.814819 782.781311,537.827942 
	C807.533508,537.827942 831.810364,537.827942 856.798584,538.168457 
	C859.249695,538.759705 861.004700,538.934021 862.726624,539.275146 
	C868.813538,540.480774 874.927063,541.593506 880.937500,543.109863 
	C882.152832,543.416504 883.924316,545.510498 883.746521,546.465576 
	C883.435242,548.138489 882.137512,550.306458 880.674438,550.948486 
	C877.386475,552.391296 873.703674,552.904724 870.264221,554.045532 
	C868.732056,554.553711 867.399292,555.663086 865.975952,556.499512 
M781.500427,550.159302 
	C781.824097,550.097473 782.147705,550.035706 782.471375,549.973938 
	C782.150024,549.900635 781.828613,549.827332 781.500427,550.159302 
z"/>
<path fill="#04264B" opacity="1.000000" stroke="none" 
	d="
M321.739960,388.955444 
	C326.659668,378.096863 331.675201,367.280457 336.473206,356.368347 
	C341.675873,344.535919 346.675995,332.614441 351.828857,320.379089 
	C366.321167,320.049866 379.802063,324.648315 393.344879,328.796417 
	C398.671783,330.427948 403.819244,332.695831 408.936798,334.929596 
	C410.453186,335.591461 411.589020,337.125214 412.989624,338.596741 
	C404.472198,359.082062 395.864319,379.230133 386.742432,399.688354 
	C379.345215,397.667267 372.595398,394.761902 365.550873,393.125183 
	C351.177917,389.785797 336.520721,388.488525 321.739960,388.955444 
z"/>
<path fill="#04264B" opacity="1.000000" stroke="none" 
	d="
M247.022095,658.180298 
	C256.693970,640.163086 266.514435,622.424866 276.472504,604.764160 
	C277.156433,603.551208 278.869049,602.918274 280.840027,601.997681 
	C282.916168,602.561768 284.300598,603.058716 285.588348,603.738708 
	C301.370148,612.072693 317.888245,618.009094 335.851196,619.282959 
	C331.941803,627.848022 328.127380,636.458008 324.101166,644.967834 
	C317.876984,658.123230 311.508026,671.210205 305.080566,684.667908 
	C299.732117,683.737488 294.114380,683.288757 289.349365,681.036194 
	C275.949249,674.701660 262.890869,667.642517 249.731659,660.803711 
	C248.750900,660.294006 248.039886,659.265198 247.022095,658.180298 
z"/>
<path fill="#F7F6F4" opacity="1.000000" stroke="none" 
	d="
M762.338806,545.436462 
	C763.975525,545.386230 765.489075,545.872375 767.037842,546.181702 
	C768.544128,546.482483 770.086548,546.602112 771.613159,546.801270 
	C771.369507,545.273315 771.137573,543.743286 770.875122,542.218567 
	C770.796570,541.762268 770.633057,541.320618 771.207581,539.835083 
	C772.412170,540.630981 773.794739,541.259888 774.755615,542.284363 
	C775.347290,542.915283 775.514771,544.154541 775.495483,545.113037 
	C775.380798,550.805054 778.188782,554.348877 783.638062,556.434326 
	C783.523376,558.371887 782.885071,560.093811 782.853699,561.826782 
	C782.730164,568.655884 782.801086,575.488464 782.792969,582.319763 
	C782.776672,595.962097 789.964783,603.177429 803.786377,603.198425 
	C831.444763,603.240417 859.103210,603.209656 886.761658,603.209045 
	C888.553528,603.208984 890.345398,603.209045 892.731506,603.209045 
	C892.731506,607.964355 893.079285,612.278442 892.630188,616.507935 
	C892.211304,620.452820 889.334961,622.710266 885.411682,622.713684 
	C854.591492,622.740601 823.762756,623.054016 792.954163,622.424683 
	C776.757202,622.093811 761.031921,605.822510 762.006409,589.371765 
	C762.862122,574.925903 762.214600,560.391052 762.338806,545.436462 
z"/>
<path fill="#F7F6F4" opacity="1.000000" stroke="none" 
	d="
M866.434204,556.611206 
	C867.399292,555.663086 868.732056,554.553711 870.264221,554.045532 
	C873.703674,552.904724 877.386475,552.391296 880.674438,550.948486 
	C882.137512,550.306458 883.435242,548.138489 883.746521,546.465576 
	C883.924316,545.510498 882.152832,543.416504 880.937500,543.109863 
	C874.927063,541.593506 868.813538,540.480774 862.726624,539.275146 
	C861.004700,538.934021 859.249695,538.759705 857.258972,538.265686 
	C868.603516,538.022461 880.199036,538.022461 892.020020,538.022461 
	C892.020020,544.192139 892.020020,550.252319 892.020020,556.722961 
	C883.447632,556.722961 875.170044,556.722961 866.434204,556.611206 
z"/>
<path fill="#F7F6F4" opacity="1.000000" stroke="none" 
	d="
M821.373413,556.633911 
	C821.938965,554.017578 823.148743,553.200378 824.953003,556.237488 
	C823.938782,556.595825 822.854126,556.669067 821.373413,556.633911 
z"/>
<path fill="#043D7E" opacity="1.000000" stroke="none" 
	d="
M336.210999,619.125488 
	C317.888245,618.009094 301.370148,612.072693 285.588348,603.738708 
	C284.300598,603.058716 282.916168,602.561768 281.199127,601.927551 
	C280.243286,600.896606 279.896942,599.599182 279.053223,598.985046 
	C247.019272,575.667297 232.168427,543.570007 231.296112,504.609924 
	C230.762619,480.782379 237.627945,458.944397 249.827515,438.439972 
	C257.749756,425.124603 268.270813,414.631561 280.962463,406.329926 
	C288.931610,401.117371 297.588379,396.835449 306.283539,392.902893 
	C310.827332,390.847900 316.120544,390.449951 321.407623,389.129517 
	C336.520721,388.488525 351.177917,389.785797 365.550873,393.125183 
	C372.595398,394.761902 379.345215,397.667267 386.616516,400.024963 
	C396.637299,407.567413 406.403717,414.921112 415.827209,422.690735 
	C418.962952,425.276154 421.475311,428.749512 423.831360,432.124939 
	C432.026703,443.866394 438.334412,456.517303 442.262390,470.374573 
	C446.757080,486.231201 448.763245,502.216370 446.249054,518.621155 
	C442.429993,543.539490 432.839020,566.098267 415.555664,584.375061 
	C394.351166,606.798401 367.639648,618.258179 336.210999,619.125488 
z"/>
<path fill="#F7F6F4" opacity="1.000000" stroke="none" 
	d="
M781.503845,549.956665 
	C781.828613,549.827332 782.150024,549.900635 782.471375,549.973938 
	C782.147705,550.035706 781.824097,550.097473 781.503845,549.956665 
z"/>
</svg>